<svg width="183" height="81" viewBox="0 0 183 81" fill="none" xmlns="http://www.w3.org/2000/svg">
<path fill-rule="evenodd" clip-rule="evenodd" d="M133.472 26.3595C134.778 27.247 135.695 28.3328 136.264 29.8408L138.583 16.8791H145.718L138.903 54.7372H131.767L132.541 50.4566C132.434 50.5507 132.309 50.6595 132.165 50.7803C131.742 51.1355 131.158 51.5953 130.432 52.0945H130.448L129.926 52.4347C127.999 53.6912 124.432 55.5182 120.296 55.5182C116.727 55.5182 113.605 54.0441 111.569 51.5021C109.534 48.9602 108.595 45.3656 109.358 41.1425C110.335 35.7326 112.669 31.6196 115.681 28.8869C118.669 26.1759 122.543 24.6201 127.011 24.6201C129.849 24.6201 132.012 25.3685 133.472 26.3595ZM116.345 40.102C117.231 35.3951 121.967 33.0764 127.123 33.0764C129.698 33.0764 131.778 33.6614 133.1 34.8109C134.412 35.9509 135.01 37.6746 134.566 40.0349C133.684 44.7261 128.961 47.0604 123.857 47.0604C121.308 47.0604 119.208 46.4796 117.862 45.331C116.526 44.192 115.9 42.4683 116.345 40.102Z" fill="#28003C"/>
<path fill-rule="evenodd" clip-rule="evenodd" d="M63.1365 24.6186C54.3824 24.6186 46.0925 31.4989 44.5499 40.0362C43.7775 44.3112 44.8444 48.1832 47.2118 50.988C49.5793 53.7932 53.2371 55.5182 57.62 55.5182C66.3741 55.5182 74.664 48.6394 76.2067 40.1007C76.979 35.8257 75.9121 31.9536 73.5448 29.1488C71.1772 26.3437 67.5194 24.6186 63.1365 24.6186ZM51.1292 40.1027C52.0321 35.413 56.8588 33.0764 62.0781 33.0764C64.684 33.0764 66.8125 33.6616 68.1721 34.8125C69.5199 35.9534 70.1426 37.6765 69.6888 40.0341C68.7859 44.7238 63.9592 47.0604 58.7399 47.0604C56.1339 47.0604 54.0055 46.4752 52.6459 45.3243C51.2981 44.1834 50.6753 42.4603 51.1292 40.1027Z" fill="#28003C"/>
<path d="M155.428 19.5283L155.88 16.8791H152.892H148.733L148.304 19.4638C148.15 20.3334 148.329 21.2521 148.912 21.9428C149.453 22.5843 150.285 22.9754 151.271 22.9754C153.228 22.9754 155.083 21.4334 155.428 19.5283Z" fill="#28003C"/>
<path d="M159.156 54.7372L164.512 25.0969H157.377L152.021 54.7372H159.156Z" fill="#28003C"/>
<path d="M165.519 19.5283L165.971 16.8791H158.836L158.395 19.4638L158.395 19.465C158.222 20.423 158.463 21.3019 159.003 21.9428C159.545 22.5843 160.377 22.9754 161.362 22.9754C163.32 22.9754 165.175 21.4334 165.519 19.5283Z" fill="#28003C"/>
<path fill-rule="evenodd" clip-rule="evenodd" d="M154.448 25.0113H147.336L142.392 52.1353C141.802 55.3703 140.285 58.3622 138.036 60.7735L137.918 60.9006L142.719 65.8892L142.858 65.7466C146.19 62.3231 148.432 58.0099 149.285 53.332L154.448 25.0113Z" fill="#28003C"/>
<path fill-rule="evenodd" clip-rule="evenodd" d="M77.1651 40.0362C76.3928 44.3112 77.4597 48.1832 79.827 50.988C82.1946 53.7932 85.8524 55.5182 90.2353 55.5182C98.9894 55.5182 107.279 48.6394 108.822 40.1007C109.594 35.8257 108.527 31.9536 106.16 29.1488C103.792 26.3437 100.135 24.6186 95.7518 24.6186C86.9977 24.6186 78.7078 31.4974 77.1651 40.0362ZM83.8551 40.1025C84.7521 35.4124 89.5517 33.0764 94.7394 33.0764C97.3298 33.0764 99.445 33.6615 100.796 34.8121C102.136 35.9529 102.755 37.6763 102.304 40.0343C101.407 44.7244 96.6075 47.0604 91.4197 47.0604C88.8293 47.0604 86.7141 46.4753 85.363 45.3247C84.0234 44.1839 83.4042 42.4606 83.8551 40.1025Z" fill="#28003C"/>
<path d="M19.3595 22.8826L54.49 15.1108L54.6898 15.9709C55.7126 20.3737 52.8842 24.752 48.3725 25.7501L29.5805 29.9074C25.0687 30.9055 20.5821 28.1454 19.5593 23.7426L19.3595 22.8826Z" fill="#28003C"/>
<path d="M17.0312 35.0131L44.2211 31.1695L44.3507 32.0423C45.0139 36.5102 41.84 40.6568 37.2615 41.304L26.6517 42.8038C22.0733 43.451 17.824 40.3537 17.1608 35.8858L17.0312 35.0131Z" fill="#28003C"/>
<path d="M17.0312 46.142H34.2931V46.7757C34.2931 51.4273 30.4289 55.1982 25.6622 55.1982C20.8954 55.1982 17.0312 51.4273 17.0312 46.7757V46.142Z" fill="#28003C"/>
</svg>
